<?xml version="1.0" encoding="utf-8"?>
<!-- Generator: Adobe Illustrator 25.3.0, SVG Export Plug-In . SVG Version: 6.00 Build 0)  -->
<svg version="1.1" id="Capa_1" xmlns="http://www.w3.org/2000/svg" xmlns:xlink="http://www.w3.org/1999/xlink" x="0px" y="0px"
	 viewBox="0 0 300.4 331.3" style="enable-background:new 0 0 300.4 331.3;" xml:space="preserve">
<style type="text/css">
	.st0{fill:#EF1A24;}
	.st1{fill:#FBFFFF;}
	.st2{fill:#A11E2E;}
	.st3{fill:#FFFFFF;}
	.st4{fill:#144F61;}
	.st5{fill:#2390AE;}
</style>
<g>
	<polygon class="st0" points="189,10.2 189,87.9 163.1,87.9 163.1,113.8 85.6,113.8 85.6,36.1 111.5,36.1 111.5,62 137.3,62 
		137.3,36.1 111.5,36.1 111.5,10.2 	"/>
	<rect x="111.5" y="36.1" class="st1" width="25.8" height="25.9"/>
	<polygon class="st2" points="214.8,36.1 214.8,113.8 189,113.8 189,139.8 111.5,139.8 111.5,113.8 163.1,113.8 163.1,87.9 
		189,87.9 189,36.1 	"/>
	<rect x="137.3" y="139.8" class="st3" width="25.8" height="51.8"/>
	<polygon class="st4" points="292.3,269.3 292.3,321.1 85.6,321.1 85.6,295.2 111.5,295.2 111.5,269.3 137.3,269.3 137.3,243.4 
		111.5,243.4 111.5,217.5 163.1,217.5 163.1,191.6 189,191.6 189,217.5 214.8,217.5 214.8,243.4 266.5,243.4 266.5,269.3 	"/>
	<g>
		<rect x="111.5" y="191.6" class="st5" width="51.7" height="25.9"/>
		<polygon class="st5" points="137.3,243.4 137.3,269.3 111.5,269.3 111.5,295.2 85.6,295.2 85.6,321.1 8.1,321.1 8.1,269.3 
			34,269.3 34,243.4 85.6,243.4 85.6,217.5 111.5,217.5 111.5,243.4 		"/>
	</g>
</g>
</svg>
