<?xml version="1.0" encoding="utf-8"?>
<!-- Generator: Adobe Illustrator 25.3.0, SVG Export Plug-In . SVG Version: 6.00 Build 0)  -->
<svg version="1.1" id="Capa_1" xmlns="http://www.w3.org/2000/svg" xmlns:xlink="http://www.w3.org/1999/xlink" x="0px" y="0px"
	 viewBox="0 0 690 331.3" style="enable-background:new 0 0 690 331.3;" xml:space="preserve">
<style type="text/css">
	.st0{fill:#EF1A24;}
	.st1{fill:#FBFFFF;}
	.st2{fill:#A11E2E;}
	.st3{fill:#FFFFFF;}
	.st4{fill:#144F61;}
	.st5{fill:#2390AE;}
</style>
<g>
	<polygon class="st0" points="193.3,10.2 193.3,87.9 167.5,87.9 167.5,113.8 90,113.8 90,36.1 115.8,36.1 115.8,62 141.6,62 
		141.6,36.1 115.8,36.1 115.8,10.2 	"/>
	<rect x="115.8" y="36.1" class="st1" width="25.8" height="25.9"/>
	<polygon class="st2" points="219.1,36.1 219.1,113.8 193.3,113.8 193.3,139.8 115.8,139.8 115.8,113.8 167.5,113.8 167.5,87.9 
		193.3,87.9 193.3,36.1 	"/>
	<rect x="141.6" y="139.8" class="st3" width="25.8" height="51.8"/>
	<polygon class="st4" points="296.6,269.3 296.6,321.1 90,321.1 90,295.2 115.8,295.2 115.8,269.3 141.6,269.3 141.6,243.4 
		115.8,243.4 115.8,217.5 167.5,217.5 167.5,191.6 193.3,191.6 193.3,217.5 219.1,217.5 219.1,243.4 270.8,243.4 270.8,269.3 	"/>
	<g>
		<rect x="115.8" y="191.6" class="st5" width="51.7" height="25.9"/>
		<polygon class="st5" points="141.6,243.4 141.6,269.3 115.8,269.3 115.8,295.2 90,295.2 90,321.1 12.5,321.1 12.5,269.3 
			38.3,269.3 38.3,243.4 90,243.4 90,217.5 115.8,217.5 115.8,243.4 		"/>
	</g>
</g>
<rect x="533.9" y="295.2" class="st0" width="147.5" height="25.9"/>
<rect x="558.7" y="269.3" class="st0" width="98" height="25.9"/>
<rect x="353.2" y="295.2" class="st0" width="147.5" height="25.9"/>
<rect x="378" y="269.3" class="st0" width="98" height="25.9"/>
</svg>
